# xmcd
#
# Track frame offsets: 
#        150
#        10167
#        22195
#        36712
#        51025
#        62987
#        75722
#        88380
#        99740
#        117607
#        132007
#        142477
#        156950
#        172285
#        186375
#        200600
#        215362
#        227617
#        240805
#        252985
#        264022
#        275215
#        288227
#        302350
#        313802
#
# Disc length: 4341 seconds
#
# Revision: 1
# Processed by: cddbd v1.5.2PL0 Copyright (c) Steve Scherf et al.
# Submitted via: ExactAudioCopy v1.0b1
#
DISCID=8010f319
DTITLE=Various Artist - Messing With The Blues
DYEAR=2000
DGENRE=Blues
TTITLE0=Little Johnny Jones - Hoy Hoy (alt) (mono)
TTITLE1=Little Johnny Jones - Up The Line (Doin' The Best I Can) (mono
TTITLE1=)
TTITLE2=Little Johnny Jones - Chicago Blues (mono)
TTITLE3=Little Johnny Jones - Wait Baby (mono)
TTITLE4=Little Johnny Jones - Hoy Hoy (mono)
TTITLE5=Joe Turner and His Blues Kings - TV Mama (mono)
TTITLE6=T Bone Walker - T-Bone Shuffle (mono)
TTITLE7=T Bone Walker - Play On Little Girl (mono)
TTITLE8=Jack Dupree - Bad Blood (mono)
TTITLE9=Jack Dupree - Junker's Blues (mono)
TTITLE10=Ray Charles - A Bit Of Soul (mono)
TTITLE11=Ray Charles - Losing Hand (mono)
TTITLE12=Ray Charles - Sinner's Prayer (mono)
TTITLE13=Frank 'Floorshow' Culley and His Band - After Hour Session (mon
TTITLE13=o)
TTITLE14=Jimmy Earle and The Jazz Kings - Climbin' Up To Heaven (mono)
TTITLE15=Lucky Davis and His Blues Kings - Cold Love (mono)
TTITLE16=Chuck Norris - Messin' Up (mono)
TTITLE17=Chuck Norris - Let Me Know (mono)
TTITLE18=John Lee Hooker - Guitar Lovin' Man (mono)
TTITLE19=John Lee Hooker - Real Real Gone (mono)
TTITLE20=Jimmy Griffin and His Band featuring Beau Fairley - She's A W-O
TTITLE20=M-A-N (mono)
TTITLE21=Tiny Grimes and His Sextet - Blue Harlem (mono)
TTITLE22=Odele Turner with Jesse Stone and His Orchestra - Draggin' Hour
TTITLE22=s (mono)
TTITLE23=Hal Paige and His Band - Break Of Day Blues (mono)
TTITLE24=Larry Dale - Drinkin' Wine Spo-Dee-O-Dee (mono)
EXTD=Ace CDCHD 773
EXTT0=
EXTT1=
EXTT2=
EXTT3=
EXTT4=
EXTT5=
EXTT6=
EXTT7=
EXTT8=
EXTT9=
EXTT10=
EXTT11=
EXTT12=
EXTT13=
EXTT14=
EXTT15=
EXTT16=
EXTT17=
EXTT18=
EXTT19=
EXTT20=
EXTT21=
EXTT22=
EXTT23=
EXTT24=
PLAYORDER=
